<svg xmlns="http://www.w3.org/2000/svg" width="573" height="442" viewBox="0 0 573 442" fill="none">
  <title>RAG Knowledge Base - documents to embeddings to a cited answer</title>
  <rect width="573" height="442" rx="16" fill="#F7F2E6"/>
  <rect x="0.9" y="0.9" width="571.2" height="440.2" rx="15.1" stroke="#3B4AD6" stroke-width="1.8"/>

  <text x="40" y="62" font-family="Georgia, serif" font-size="27" fill="#FF5E00">Retrieve, then answer</text>
  <text x="40" y="85" font-family="system-ui, sans-serif" font-size="10.5" letter-spacing="1.8" fill="#3B4AD6">PDF &#8594; PGVECTOR &#8594; LOCAL OLLAMA</text>

  <g transform="rotate(-0.6 286 240)">

    <g transform="translate(46 186) rotate(-8)">
      <path d="M0 0 H60 L78 19 V100 H0 Z" fill="#F7F2E6" stroke="#3B4AD6" stroke-width="1.6" stroke-linejoin="round"/>
      <path d="M60 0 V19 H78" stroke="#3B4AD6" stroke-width="1.6" stroke-linejoin="round" fill="none"/>
      
      <g fill="#3B4AD6" fill-opacity=".28">
        <rect x="12" y="36" width="46" height="4.5" rx="2.2"/>
        <rect x="12" y="48" width="54" height="4.5" rx="2.2"/>
        <rect x="12" y="60" width="38" height="4.5" rx="2.2"/>
        <rect x="12" y="72" width="50" height="4.5" rx="2.2"/>
      </g>
    </g>

    <g transform="translate(62 176) rotate(3)">
      <path d="M0 0 H60 L78 19 V100 H0 Z" fill="#F7F2E6" stroke="#3B4AD6" stroke-width="1.6" stroke-linejoin="round"/>
      <path d="M60 0 V19 H78" stroke="#3B4AD6" stroke-width="1.6" stroke-linejoin="round" fill="none"/>
      
      <g fill="#3B4AD6" fill-opacity=".28">
        <rect x="12" y="36" width="46" height="4.5" rx="2.2"/>
        <rect x="12" y="48" width="54" height="4.5" rx="2.2"/>
        <rect x="12" y="60" width="38" height="4.5" rx="2.2"/>
        <rect x="12" y="72" width="50" height="4.5" rx="2.2"/>
      </g>
    </g>

    <g transform="translate(76 168) rotate(-1.5)">
      <path d="M0 0 H60 L78 19 V100 H0 Z" fill="#F7F2E6" stroke="#3B4AD6" stroke-width="1.6" stroke-linejoin="round"/>
      <path d="M60 0 V19 H78" stroke="#3B4AD6" stroke-width="1.6" stroke-linejoin="round" fill="none"/>
      <path d="M60 0 L78 19 H60 Z" fill="#FF5E00"/>
      <g fill="#3B4AD6" fill-opacity=".5">
        <rect x="12" y="36" width="46" height="4.5" rx="2.2"/>
        <rect x="12" y="48" width="54" height="4.5" rx="2.2"/>
        <rect x="12" y="60" width="38" height="4.5" rx="2.2"/>
        <rect x="12" y="72" width="50" height="4.5" rx="2.2"/>
      </g>
    </g>
    <text x="118" y="330" text-anchor="middle" font-family="system-ui, sans-serif" font-size="10" letter-spacing="1.6" fill="#3B4AD6" fill-opacity=".8">YOUR PDFS</text>

    <path d="M182 226 Q199 223 208 226" stroke="#FF5E00" stroke-width="2.2" stroke-linecap="round" fill="none"/>
    <path d="M203 220.5 L212 226 L203 231.5" stroke="#FF5E00" stroke-width="2.2" stroke-linecap="round" stroke-linejoin="round" fill="none"/>

    <path d="M300 152 C373.8 155.7 382 270.4 328.7 294.08 C259 308.88 213.89999999999998 248.2 229.48000000000002 194.92000000000002 C240.96 152 275.4 143.12 300 152 Z"
      stroke="#3B4AD6" stroke-width="1.5" stroke-opacity=".55" stroke-dasharray="5 5" fill="none"/>
    <path d="M300 226L274 212M300 226L308 248M300 226L334 200" stroke="#FF5E00" stroke-width="1.3" stroke-opacity=".55" fill="none"/>
    <g fill="#3B4AD6" fill-opacity=".45"><circle cx="265.6" cy="182" r="3.9"/><circle cx="278.8" cy="250.2" r="4"/><circle cx="330.8" cy="284.2" r="3.8"/><circle cx="288.1" cy="201.2" r="4.2"/><circle cx="277.3" cy="255.2" r="3.5"/><circle cx="320.6" cy="232.9" r="3.5"/><circle cx="252.5" cy="215.3" r="4.3"/><circle cx="236.6" cy="217.4" r="3.2"/><circle cx="291.1" cy="282.2" r="4"/><circle cx="285.8" cy="240.9" r="3.8"/><circle cx="360" cy="237.9" r="3.1"/><circle cx="312" cy="195.2" r="3"/><circle cx="249.5" cy="224.1" r="3.9"/><circle cx="252.6" cy="182.5" r="3.3"/><circle cx="352.1" cy="267" r="3.2"/><circle cx="291.2" cy="183.6" r="4"/><circle cx="298.5" cy="278.4" r="3.9"/><circle cx="353.6" cy="200.7" r="1.9"/><circle cx="225.6" cy="230.6" r="2.7"/><circle cx="354" cy="232.5" r="2.4"/><circle cx="275.5" cy="167.5" r="2.8"/><circle cx="255.1" cy="176.2" r="4.2"/><circle cx="316" cy="175.9" r="2"/><circle cx="352.3" cy="181.1" r="4"/><circle cx="249.8" cy="186.1" r="4.2"/><circle cx="332.3" cy="266.3" r="4.3"/><circle cx="355.1" cy="189.7" r="3.7"/><circle cx="266.6" cy="254" r="3.8"/><circle cx="297.3" cy="272" r="2.5"/><circle cx="349.3" cy="270.1" r="2.8"/><circle cx="265.2" cy="269.4" r="1.9"/><circle cx="351.3" cy="195.5" r="3.6"/><circle cx="332.7" cy="267.1" r="2"/><circle cx="262.6" cy="199.8" r="2.3"/><circle cx="352.5" cy="221.8" r="3.9"/></g>
    <circle cx="274" cy="212" r="4.6" fill="#FF5E00"/><circle cx="274" cy="212" r="9.5" stroke="#FF5E00" stroke-width="1.4" fill="none"/><circle cx="308" cy="248" r="4.6" fill="#FF5E00"/><circle cx="308" cy="248" r="9.5" stroke="#FF5E00" stroke-width="1.4" fill="none"/><circle cx="334" cy="200" r="4.6" fill="#FF5E00"/><circle cx="334" cy="200" r="9.5" stroke="#FF5E00" stroke-width="1.4" fill="none"/>
    <circle cx="300" cy="226" r="6" fill="#3B4AD6"/>
    <text x="300" y="330" text-anchor="middle" font-family="system-ui, sans-serif" font-size="10" letter-spacing="1.6" fill="#3B4AD6" fill-opacity=".8">SEMANTIC SEARCH &#183; TOP-K</text>

    <path d="M390 226 Q405 223 412 226" stroke="#FF5E00" stroke-width="2.2" stroke-linecap="round" fill="none"/>
    <path d="M407 220.5 L416 226 L407 231.5" stroke="#FF5E00" stroke-width="2.2" stroke-linecap="round" stroke-linejoin="round" fill="none"/>

    <g transform="translate(424 152) rotate(1)">
      <rect width="112" height="148" rx="9" fill="#F7F2E6" stroke="#3B4AD6" stroke-width="1.8"/>
      <g fill="#3B4AD6" fill-opacity=".42">
        <rect x="16" y="22" width="80" height="5" rx="2.5"/>
        <rect x="16" y="36" width="68" height="5" rx="2.5"/>
        <rect x="16" y="50" width="80" height="5" rx="2.5"/>
        <rect x="16" y="64" width="46" height="5" rx="2.5"/>
      </g>
      <path d="M16 88 H96" stroke="#3B4AD6" stroke-width="1.2" stroke-opacity=".3" stroke-dasharray="3 4"/>
      <g font-family="system-ui, sans-serif" font-size="10" fill="#F7F2E6" text-anchor="middle">
        <rect x="16" y="102" width="36" height="20" rx="10" fill="#FF5E00"/>
        <text x="34" y="116">p.14</text>
        <rect x="58" y="102" width="38" height="20" rx="10" fill="#FF5E00"/>
        <text x="77" y="116">p.31</text>
      </g>
    </g>
    <text x="480" y="330" text-anchor="middle" font-family="system-ui, sans-serif" font-size="10" letter-spacing="1.6" fill="#3B4AD6" fill-opacity=".8">GROUNDED ANSWER</text>
  </g>

  <text x="40" y="398" font-family="system-ui, sans-serif" font-size="11" letter-spacing="1.5" fill="#3B4AD6" fill-opacity=".75">TYPESCRIPT &#183; POSTGRES + PGVECTOR &#183; NOTHING LEAVES THE MACHINE</text>
</svg>
